<svg width="136" height="32" fill="none" xmlns="http://www.w3.org/2000/svg"><path d="M32 16a16 16 0 10-18.5 15.8V20.62H9.44V16h4.06v-3.53c0-4 2.39-6.22 6.04-6.22 1.75 0 3.58.31 3.58.31v3.94h-2.01c-1.99 0-2.61 1.23-2.61 2.5v3h4.44l-.71 4.63H18.5V31.8A16 16 0 0032 16zM73 16a5 5 0 11-9.92-.83h-1.75v6.66c0 .46.38.84.84.84h11.66a.84.84 0 00.84-.84v-6.66h-1.75c.05.27.08.54.08.83zm-5 3.33a3.33 3.33 0 100-6.66 3.33 3.33 0 000 6.66zm4-6.83h2a.5.5 0 00.5-.5v-2a.5.5 0 00-.5-.5h-2a.5.5 0 00-.5.5v2c0 .28.22.5.5.5zM68 0a16 16 0 100 32 16 16 0 000-32zm8.33 22.48c0 1.02-.83 1.85-1.85 1.85H61.52a1.86 1.86 0 01-1.85-1.85V9.52c0-1.02.83-1.85 1.85-1.85h12.96c1.02 0 1.85.83 1.85 1.85v12.96zM120 32a15.7 15.7 0 01-6.22-1.27 16.02 16.02 0 01-5.1-3.4 16.01 16.01 0 01-3.41-5.11A15.7 15.7 0 01104 16c0-2.17.42-4.24 1.27-6.22a16.01 16.01 0 013.4-5.1 16.02 16.02 0 015.11-3.41A15.7 15.7 0 01120 0c2.17 0 4.24.42 6.22 1.27 1.98.84 3.68 1.97 5.1 3.4a16.01 16.01 0 013.41 5.11A15.7 15.7 0 01136 16c0 2.17-.42 4.24-1.27 6.22a16.01 16.01 0 01-3.4 5.1 16.02 16.02 0 01-5.11 3.41A15.7 15.7 0 01120 32zm9.4-24c-.12.06-.3.18-.56.34l-.6.41-.58.31-.66.22A3.68 3.68 0 00124.16 8c-2.44 0-3.66 1.02-3.66 3.06v1.85c-3.35-.17-5.93-1.4-7.72-3.7A2.52 2.52 0 00112 11c0 1.38.51 2.42 1.53 3.13-.12 0-.3 0-.53.03-.23.02-.41.02-.55 0A1.57 1.57 0 01112 14c0 .96.25 1.76.77 2.4a3.53 3.53 0 002.1 1.23c-.2.25-.5.37-.87.37-.33 0-.63-.1-.88-.28 0 .81.4 1.44 1.18 1.89.78.45 1.66.68 2.64.7-.38.57-.92.99-1.64 1.27-.72.28-1.49.42-2.3.42-.3 0-.7-.07-1.2-.22l-.8-.22c.33.67 1.02 1.24 2.05 1.72 1.03.48 2.34.72 3.92.72a10.3 10.3 0 007-2.69A13.1 13.1 0 00128 12c0-.04.13-.13.38-.27.25-.13.54-.31.87-.54.33-.23.58-.47.75-.72-1.13 0-1.88.02-2.25.06.73-.44 1.28-1.28 1.66-2.53z" fill="#fff"/></svg>